<?xml version="1.0" standalone="no"?>
<!DOCTYPE svg PUBLIC "-//W3C//DTD SVG 20010904//EN"
 "http://www.w3.org/TR/2001/REC-SVG-20010904/DTD/svg10.dtd">
<svg version="1.0" xmlns="http://www.w3.org/2000/svg"
 width="556.000000pt" height="556.000000pt" viewBox="0 0 556.000000 556.000000"
 preserveAspectRatio="xMidYMid meet">
<metadata>
Created by potrace 1.11, written by Peter Selinger 2001-2013
</metadata>
<g transform="translate(0.000000,556.000000) scale(0.100000,-0.100000)"
fill="#000000" stroke="none">
<path d="M3177 4850 c-45 -24 -99 -76 -125 -120 -18 -31 -60 -128 -67 -155 -1
-5 -4 -17 -7 -25 -35 -96 -87 -290 -104 -387 -2 -13 -6 -35 -9 -50 -3 -16 -8
-44 -10 -63 -3 -19 -8 -46 -12 -60 -3 -14 -7 -32 -8 -40 -1 -8 -5 -35 -10 -60
-4 -25 -9 -56 -11 -70 -5 -45 -14 -104 -19 -138 -3 -17 -8 -49 -11 -70 -2 -20
-6 -53 -9 -72 -5 -33 -10 -72 -20 -165 -3 -22 -7 -56 -10 -75 -8 -64 -18 -175
-17 -192 0 -10 -3 -18 -9 -18 -5 0 -9 4 -9 9 0 5 -16 44 -36 88 -20 43 -52
114 -72 158 -39 85 -194 394 -232 460 -13 22 -35 63 -50 90 -15 28 -53 93 -86
145 -74 118 -81 131 -91 150 -4 8 -12 20 -18 27 -7 6 -27 35 -46 65 -18 29
-37 58 -42 63 -4 6 -35 46 -70 91 -77 100 -80 103 -147 173 -62 64 -147 129
-176 134 -11 1 -26 7 -34 12 -8 5 -43 10 -78 11 -73 1 -124 -19 -170 -70 -31
-35 -107 -166 -131 -226 -13 -34 -113 -326 -120 -352 -16 -58 -54 -208 -57
-228 -3 -14 -9 -38 -14 -55 -5 -16 -11 -43 -14 -60 -2 -16 -5 -30 -6 -30 -1 0
-3 -12 -5 -27 -2 -15 -11 -62 -19 -105 -16 -82 -21 -109 -30 -183 -3 -25 -8
-56 -11 -69 -2 -13 -7 -53 -10 -90 -3 -36 -8 -87 -11 -114 -2 -26 -7 -72 -9
-103 -2 -31 -6 -58 -8 -61 -3 -2 -23 4 -44 14 -21 10 -40 18 -43 19 -3 0 -30
12 -60 26 -75 36 -181 79 -199 83 -9 2 -40 12 -69 24 -28 11 -52 18 -52 15 0
-4 -7 -1 -15 6 -8 7 -15 10 -15 6 0 -3 -12 -1 -27 5 -28 11 -65 17 -136 23
-23 2 -52 -4 -77 -16 -62 -31 -86 -120 -51 -186 6 -11 11 -28 11 -36 0 -41 66
-85 119 -80 50 4 79 23 93 59 10 28 15 32 42 30 82 -6 252 -45 417 -95 l106
-32 1 -124 c3 -173 12 -338 27 -479 3 -27 7 -70 10 -95 4 -47 13 -107 20 -150
3 -14 7 -45 10 -70 3 -25 7 -54 9 -65 3 -11 11 -51 19 -90 9 -38 18 -86 21
-106 3 -20 8 -42 10 -50 3 -8 8 -25 10 -39 3 -14 7 -34 10 -45 3 -11 14 -63
26 -115 11 -52 25 -108 30 -125 69 -224 84 -262 165 -430 63 -132 89 -159 148
-159 84 0 136 73 107 152 -7 20 -16 39 -20 42 -3 3 -36 49 -73 103 -109 162
-236 429 -282 593 -28 99 -76 307 -81 349 -3 22 -11 72 -19 110 -8 39 -17 102
-20 140 -4 39 -9 90 -11 115 -18 172 -29 500 -17 500 20 0 413 -160 578 -234
27 -13 104 -47 170 -76 66 -29 176 -79 244 -111 68 -33 125 -59 127 -59 7 0
741 -367 809 -405 33 -18 121 -64 195 -102 74 -39 151 -79 170 -90 19 -11 80
-44 135 -73 55 -29 114 -60 130 -70 17 -9 80 -43 140 -75 61 -32 124 -65 140
-75 17 -10 77 -42 135 -72 58 -31 155 -82 215 -115 61 -33 155 -84 210 -113
55 -29 123 -65 150 -80 28 -15 140 -73 250 -130 110 -56 228 -118 262 -137
l62 -34 26 25 c20 20 24 32 19 49 -4 12 -11 24 -17 26 -19 7 -550 276 -647
328 -117 62 -219 117 -285 153 -27 15 -129 69 -225 120 -96 51 -195 104 -220
118 -25 14 -47 26 -50 25 -3 0 -21 10 -40 21 -19 12 -69 39 -110 60 -41 22
-79 42 -85 46 -5 4 -64 36 -130 70 -66 34 -124 66 -130 71 -5 5 -17 9 -26 9
-10 0 -19 4 -21 9 -5 15 -792 415 -1118 569 -221 104 -271 127 -320 149 -30
14 -55 24 -55 23 0 -1 -22 10 -50 23 -50 25 -382 171 -551 242 l-90 38 2 51
c3 79 21 292 30 361 7 55 23 155 29 185 3 14 7 39 10 55 3 17 10 53 15 80 6
28 12 60 15 73 2 13 6 31 9 40 3 9 7 28 10 42 4 20 28 116 70 275 14 55 64
205 88 265 83 210 160 295 239 268 87 -29 186 -95 269 -178 99 -98 154 -160
143 -160 -5 0 -3 -4 2 -8 6 -4 23 -25 40 -47 16 -22 31 -42 34 -45 4 -3 12
-17 20 -32 8 -16 18 -28 23 -28 4 0 8 -4 8 -9 0 -5 18 -37 40 -70 22 -33 40
-63 40 -66 0 -4 14 -26 30 -50 17 -24 30 -47 30 -51 0 -4 11 -22 26 -41 14
-18 22 -33 18 -33 -3 0 0 -7 7 -17 8 -9 26 -39 41 -67 54 -100 278 -554 278
-563 0 -5 10 -29 22 -54 12 -24 41 -100 65 -168 23 -69 47 -129 51 -133 5 -5
20 -11 34 -13 20 -4 32 2 52 26 14 17 26 38 26 47 1 135 9 453 13 472 6 26 26
177 32 240 6 51 15 121 21 150 2 14 7 45 10 70 3 25 7 52 9 60 2 8 7 31 10 50
38 241 118 559 166 668 48 106 128 167 184 138 52 -27 141 -88 230 -159 46
-36 175 -166 222 -223 67 -83 94 -118 115 -153 12 -20 28 -40 35 -44 7 -4 13
-15 13 -22 0 -8 4 -15 9 -15 5 0 12 -8 15 -17 7 -19 12 -28 59 -100 15 -24 27
-47 27 -52 0 -5 3 -11 8 -13 10 -4 184 -364 188 -387 0 -3 9 -24 19 -46 9 -22
18 -44 20 -50 1 -5 7 -23 13 -38 7 -16 12 -30 12 -32 0 -2 5 -16 12 -32 6 -15
13 -34 15 -40 1 -7 5 -19 6 -25 2 -7 7 -22 11 -33 5 -11 12 -31 16 -45 4 -14
11 -34 16 -45 4 -11 8 -26 10 -32 1 -7 11 -41 23 -76 11 -35 24 -81 30 -103 5
-21 19 -73 31 -114 33 -114 79 -294 101 -399 24 -108 27 -123 34 -154 6 -25
11 -58 21 -137 8 -66 25 -90 62 -84 50 9 51 20 16 192 -14 70 -28 138 -30 152
-33 182 -220 847 -275 975 -4 11 -27 70 -50 130 -23 61 -47 119 -52 130 -6 11
-12 25 -13 32 -4 22 -129 270 -181 357 -29 49 -53 90 -53 92 0 7 -65 99 -72
102 -4 2 -8 8 -8 12 0 12 -87 137 -110 160 -3 3 -17 21 -32 42 -15 20 -33 42
-40 50 -11 11 -112 127 -156 178 -81 95 -189 177 -257 195 -60 15 -123 14
-158 -5z"/>
</g>
</svg>
